<svg xmlns="http://www.w3.org/2000/svg" viewBox="0 0 512 512" fill="none">
  <rect width="512" height="512" rx="96" fill="#0c0f14"/>
  <circle cx="256" cy="256" r="160" fill="#3d9eff" opacity="0.2"/>
  <path fill="#3d9eff" d="M160 300h192c8.8 0 16-7.2 16-16v-8H144v8c0 8.8 7.2 16 16 16zm48-72h96c13.3 0 24-10.7 24-24v-32c0-13.3-10.7-24-24-24h-96c-13.3 0-24 10.7-24 24v32c0 13.3 10.7 24 24 24zm160 48H144c-26.5 0-48 21.5-48 48v24c0 26.5 21.5 48 48 48h224c26.5 0 48-21.5 48-48v-24c0-26.5-21.5-48-48-48z"/>
</svg>
